<?xml version="1.0" encoding="utf-8"?>
<svg viewBox="417.11 242.156 39.733 40.476" xmlns="http://www.w3.org/2000/svg">
  <g id="r" transform="matrix(1, 0, 0, 1, 404.94925530179216, 238.96518300421798)">
    <path d="M27.44,18.97v9.13h9.12v-9.13h-9.12Z" fill="#f0f4f6" id="t"/>
    <path d="M29.38,5.05c-.29-.07-.6-.07-.89,.02l-10.48,3.22c-.43,.13-.57,.68-.25,1l6.14,6.14,.68,4.34,4.48,.81h3.16l1.07-6.54-3.78-8.93s-.08-.05-.13-.07h0Z" fill="#fd91ba" id="u"/>
    <path d="M29.51,5.12l2.71,15.47h2.73l4.59-1.5,.57-3.65L30.15,5.49c-.19-.17-.41-.29-.65-.37h0Z" fill="#ffa6c5" id="v"/>
    <path d="M40.1,15.43l-5.16,5.15v3.16l7.95,.3,7.55-3.01c.11-.33,.11-.68,.01-1.01l-3.22-10.48c-.13-.43-.68-.57-1-.25l-6.14,6.14Z" fill="#0acffb" id="w"/>
    <path d="M50.45,21.03l-15.5,2.71v2.73l1.62,3.45,3.54,1.71,9.95-9.95c.18-.18,.32-.41,.4-.65Z" fill="#62d9fa" id="x"/>
    <path d="M40.1,31.63l-5.16-5.16h-3.16l-.94,6.89,3.71,8.92,11.44-3.51c.43-.13,.57-.68,.25-1l-6.14-6.14Z" fill="#fdda5c" id="y"/>
    <path d="M34.55,42.29l-2.77-15.81h-2.73l-4.46,.44-.69,4.71,5.16,5.16,5.5,5.5Z" fill="#fce87b" id="a`"/>
    <path d="M23.9,31.63l5.16-5.16v-3.16l-6.12-1.11-9.35,3.82c-.12,.33-.14,.68-.05,1.02l3.22,10.48c.13,.43,.68,.57,1,.25l6.14-6.14Z" fill="#6df4c0" id="aa"/>
    <path d="M13.59,26.03l15.47-2.71v-2.73l-5.16-5.16-9.95,9.95c-.17,.19-.3,.41-.37,.65Z" fill="#9af6d3" id="ab"/>
    <path d="M50.45,21.03l-15.5-.45v3.16l15.5-2.71Z" fill="#00bff8" id="ac"/>
    <path d="M13.59,26.03l15.5,.45v-3.16l-15.5,2.71Z" fill="#3aedbc" id="ad"/>
    <path d="M29.51,5.12l-.45,15.5h3.16l-2.71-15.5Z" fill="#fc76a8" id="ae"/>
    <path d="M34.55,42.29l.39-15.81h-3.16l2.77,15.81Z" fill="#f8c228" id="af"/>
    <path d="M 51.42 19.73 L 48.2 9.25 C 48.07 8.84 47.8 8.5 47.42 8.3 C 47.04 8.1 46.61 8.06 46.2 8.18 C 45.95 8.26 45.72 8.4 45.54 8.58 L 40.11 14.01 L 30.86 4.78 C 30.16 4.08 29.14 3.83 28.19 4.12 L 17.71 7.34 C 17.3 7.47 16.96 7.74 16.76 8.12 C 16.56 8.5 16.52 8.93 16.64 9.34 C 16.72 9.59 16.85 9.81 17.04 10 L 22.47 15.43 L 13.23 24.67 C 12.53 25.37 12.28 26.39 12.57 27.34 L 15.79 37.82 C 15.92 38.23 16.19 38.57 16.57 38.77 C 16.95 38.97 17.38 39.01 17.79 38.89 C 18.04 38.81 18.27 38.67 18.45 38.49 L 23.88 33.06 L 28.04 37.22 L 35.53 43.04 L 46.26 39.75 C 46.67 39.62 47.01 39.35 47.21 38.97 C 47.41 38.59 47.45 38.16 47.33 37.75 C 47.25 37.5 47.12 37.28 46.93 37.09 L 41.5 31.66 L 50.74 22.42 C 51.44 21.72 51.69 20.7 51.4 19.75 L 51.42 19.73 Z M 46.48 10.47 L 49.47 20.19 L 35.95 22.56 L 35.95 21.01 L 40.81 16.15 L 46.48 10.48 L 46.48 10.47 Z M 33.05 19.59 L 30.97 7.73 L 38.68 15.44 L 34.52 19.59 L 33.04 19.59 L 33.05 19.59 Z M 33.94 21.59 L 33.94 25.48 L 30.05 25.48 L 30.05 21.59 L 33.94 21.59 Z M 18.93 9.05 L 28.65 6.06 L 31.02 19.58 L 29.47 19.58 L 24.61 14.72 L 18.94 9.05 L 18.93 9.05 Z M 23.9 16.84 L 28.06 21 L 28.06 22.48 L 16.19 24.56 L 23.9 16.85 L 23.9 16.84 Z M 17.52 36.59 L 14.53 26.87 L 28.05 24.5 L 28.05 26.05 L 23.19 30.91 L 17.52 36.58 L 17.52 36.59 Z M 25.31 31.62 L 29.47 27.46 L 30.95 27.46 L 33.03 39.32 L 29.77 36.06 L 25.32 31.61 L 25.31 31.62 Z M 33.55 42.69 L 30.05 39.19 L 33.55 42.69 Z M 45.06 37.99 L 35.34 40.98 L 32.97 27.46 L 34.52 27.46 L 39.38 32.32 L 45.05 37.99 L 45.06 37.99 Z M 40.09 30.2 L 35.93 26.04 L 35.93 24.56 L 47.8 22.48 L 40.09 30.19 L 40.09 30.2 Z"/>
  </g>
</svg>